Coordinates
version=1
nRows=4
nColumns=60
inDegrees=yes

Units are S.I. units (second, meters, Newtons, ...)
If the header above contains a line with 'inDegrees', this indicates whether rotational values are in degrees (yes) or radians (no).

endheader
time	pelvis_tilt	pelvis_list	pelvis_rotation	pelvis_tx	pelvis_ty	pelvis_tz	hip_flexion_r	hip_adduction_r	hip_rotation_r	knee_angle_r_beta	knee_angle_r	ankle_angle_r	subtalar_angle_r	mtp_angle_r	hip_flexion_l	hip_adduction_l	hip_rotation_l	knee_angle_l_beta	knee_angle_l	ankle_angle_l	subtalar_angle_l	mtp_angle_l	L5_S1_Flex_Ext	L5_S1_Lat_Bending	L5_S1_axial_rotation	L4_L5_Flex_Ext	L4_L5_Lat_Bending	L4_L5_axial_rotation	L3_L4_Flex_Ext	L3_L4_Lat_Bending	L3_L4_axial_rotation	L2_L3_Flex_Ext	L2_L3_Lat_Bending	L2_L3_axial_rotation	L1_L2_Flex_Ext	L1_L2_Lat_Bending	L1_L2_axial_rotation	L1_T12_Flex_Ext	L1_T12_Lat_Bending	L1_T12_axial_rotation	Abs_r3	Abs_r2	Abs_r1	Abs_t1	Abs_t2	arm_flex_r	arm_add_r	arm_rot_r	elbow_flex_r	pro_sup_r	wrist_flex_r	wrist_dev_r	arm_flex_l	arm_add_l	arm_rot_l	elbow_flex_l	pro_sup_l	wrist_flex_l	wrist_dev_l
     92.32000000	      0.60751758	      1.24684778	     91.86953364	      0.40829071	      0.93401395	      0.30020867	     11.31428668	     -3.94750247	      1.74375656	      0.29853635	    -17.10487317	      6.18458192	      0.00000000	      0.00000000	     11.13944207	     -6.17823798	     -0.37810334	      0.25489317	    -14.60430287	      5.78379471	      0.00000000	      0.00000000	     -6.95624270	      0.20741542	      0.13688959	    -12.91843832	      0.27586250	      0.14544519	    -11.42841113	      0.50430985	      0.14544519	     -7.95028978	      0.50430985	      0.11977839	     -6.45956697	      0.42296152	      0.11122279	     -3.97479708	      0.32128648	      0.10266719	    -49.68774598	      2.34632468	      0.76133882	      0.00000000	      0.00000000	     86.39645889	    -21.27434950	     27.77273711	     39.70191899	     55.07906039	     22.10846889	     20.67364015	     89.86813754	    -14.18065018	     30.23631173	     31.56619667	     57.95844573	     25.42927842	     15.93327887
     92.33000000	      0.58448245	      1.16678760	     92.01750706	      0.40832545	      0.93380796	      0.30238841	     11.54739701	     -3.96993446	      1.76405041	      0.29905980	    -17.13486458	      6.15452428	      0.00000000	      0.00000000	     11.39531898	     -6.14326074	     -0.36406183	      0.25401746	    -14.55412851	      5.71911468	      0.00000000	      0.00000000	     -6.98020393	      0.20704405	      0.12509404	    -12.96293673	      0.27536859	      0.13291242	    -11.46777704	      0.50340690	      0.13291242	     -7.97767508	      0.50340690	      0.10945729	     -6.48181737	      0.42220423	      0.10163891	     -3.98848853	      0.32071123	      0.09382053	    -49.85889868	      2.34212370	      0.69573554	      0.00000000	      0.00000000	     86.75479267	    -21.35264167	     27.71076976	     39.74087838	     55.09272033	     22.10165057	     20.66815498	     90.23478803	    -14.10185924	     30.18704233	     31.67543964	     57.97230924	     25.41510872	     15.92637148
     92.34000000	      0.47981775	      1.01747698	     92.20674816	      0.40830424	      0.93346696	      0.30479805	     12.04578734	     -4.08726821	      1.74018617	      0.30618007	    -17.54282600	      6.01206674	      0.00000000	      0.00000000	     11.78765949	     -5.99024991	     -0.05142308	      0.25523756	    -14.62403472	      5.28546543	      0.00000000	      0.00000000	     -6.99553363	      0.19485687	      0.10759016	    -12.99140550	      0.25915963	      0.11431454	    -11.49296219	      0.47377499	      0.11431454	     -7.99519538	      0.47377499	      0.09414139	     -6.49605252	      0.39735213	      0.08741700	     -3.99724791	      0.30183329	      0.08069262	    -49.96839713	      2.20425986	      0.59838417	      0.00000000	      0.00000000	     87.09926151	    -21.52043585	     27.69341271	     39.79886482	     55.17424223	     22.07365113	     20.72753730	     90.66000831	    -13.91043995	     30.05427132	     31.81939526	     58.05459809	     25.30452169	     15.99389421
     92.35000000	      0.47964742	      0.90800992	     92.37274992	      0.40837253	      0.93316502	      0.30701539	     12.30604635	     -4.08571701	      1.72547469	      0.30643895	    -17.55765880	      6.01104922	      0.00000000	      0.00000000	     12.05610431	     -5.97980334	     -0.07084895	      0.25366406	    -14.53388002	      5.24963938	      0.00000000	      0.00000000	     -7.01293231	      0.19083384	      0.09012452	    -13.02371660	      0.25380901	      0.09575730	    -11.52154650	      0.46399340	      0.09575730	     -8.01508034	      0.46399340	      0.07885895	     -6.51220895	      0.38914836	      0.07322617	     -4.00718952	      0.29560162	      0.06759339	    -50.09267423	      2.15875055	      0.50124554	      0.00000000	      0.00000000	     87.43500815	    -21.58915934	     27.61653392	     39.82178543	     55.18478972	     22.06062839	     20.73245479	     91.04453975	    -13.83596795	     29.98602741	     31.93657956	     58.06966611	     25.27949281	     15.99769350
